<svg width="82" height="82" viewBox="0 0 82 82" fill="none" xmlns="http://www.w3.org/2000/svg">
<mask id="path-1-outside-1_2209_8683" maskUnits="userSpaceOnUse" x="38.0002" y="-9.7784e-07" width="44" height="62" fill="black">
<rect fill="white" x="38.0002" y="-9.7784e-07" width="44" height="62"/>
<path d="M40.0002 2C46.7378 2 53.3662 3.70189 59.2704 6.94773C65.1746 10.1936 70.1632 14.8782 73.7734 20.5669C77.3835 26.2556 79.4983 32.7641 79.9213 39.4884C80.3444 46.2127 79.062 52.9348 76.1933 59.0312L40.0002 42L40.0002 2Z"/>
</mask>
<path d="M40.0002 2C46.7378 2 53.3662 3.70189 59.2704 6.94773C65.1746 10.1936 70.1632 14.8782 73.7734 20.5669C77.3835 26.2556 79.4983 32.7641 79.9213 39.4884C80.3444 46.2127 79.062 52.9348 76.1933 59.0312L40.0002 42L40.0002 2Z" fill="#FFF8FB"/>
<path d="M40.0002 2C46.7378 2 53.3662 3.70189 59.2704 6.94773C65.1746 10.1936 70.1632 14.8782 73.7734 20.5669C77.3835 26.2556 79.4983 32.7641 79.9213 39.4884C80.3444 46.2127 79.062 52.9348 76.1933 59.0312L40.0002 42L40.0002 2Z" stroke="#5B2E68" stroke-width="4" mask="url(#path-1-outside-1_2209_8683)"/>
<rect x="5.27295" y="7.27289" width="69.4546" height="69.4546" rx="34.7273" fill="#5B2E68" stroke="#FFF8FB" stroke-width="4"/>
<path d="M29.3335 40.5C28.5051 40.5 27.8335 41.1716 27.8335 42C27.8335 42.8284 28.5051 43.5 29.3335 43.5L29.3335 42L29.3335 40.5ZM46.3894 34.2679C45.801 33.6848 44.8513 33.689 44.2681 34.2774C43.6849 34.8658 43.6892 35.8155 44.2776 36.3987L45.3335 35.3333L46.3894 34.2679ZM47.6841 37.6631L46.6282 38.7284L47.6841 37.6631ZM47.6841 46.3369L48.74 47.4023L47.6841 46.3369ZM44.2776 47.6013C43.6892 48.1844 43.6849 49.1342 44.2681 49.7226C44.8513 50.311 45.801 50.3152 46.3894 49.732L45.3335 48.6666L44.2776 47.6013ZM50.6403 41.5822L52.1283 41.3926L52.1283 41.3925L50.6403 41.5822ZM50.6403 42.4178L49.1523 42.2281V42.2281L50.6403 42.4178ZM29.3335 42L29.3335 43.5L50.6668 43.5V42V40.5L29.3335 40.5L29.3335 42ZM45.3335 35.3333L44.2776 36.3987L46.6282 38.7284L47.6841 37.6631L48.74 36.5977L46.3894 34.2679L45.3335 35.3333ZM47.6841 46.3369L46.6282 45.2715L44.2776 47.6013L45.3335 48.6666L46.3894 49.732L48.74 47.4023L47.6841 46.3369ZM47.6841 37.6631L46.6282 38.7284C47.5905 39.6822 48.2207 40.31 48.6415 40.834C49.0434 41.3344 49.1295 41.5928 49.1523 41.7719L50.6403 41.5822L52.1283 41.3925C52.0068 40.4394 51.5521 39.6672 50.9806 38.9555C50.4281 38.2675 49.6523 37.5018 48.74 36.5977L47.6841 37.6631ZM47.6841 46.3369L48.74 47.4023C49.6523 46.4981 50.4281 45.7324 50.9806 45.0444C51.5521 44.3328 52.0068 43.5606 52.1283 42.6074L50.6403 42.4178L49.1523 42.2281C49.1295 42.4072 49.0434 42.6656 48.6415 43.166C48.2207 43.69 47.5905 44.3177 46.6282 45.2715L47.6841 46.3369ZM50.6403 41.5822L49.1523 41.7719C49.162 41.8476 49.1668 41.9238 49.1668 42H50.6668H52.1668C52.1668 41.7971 52.154 41.5942 52.1283 41.3926L50.6403 41.5822ZM50.6668 42H49.1668C49.1668 42.0762 49.162 42.1523 49.1523 42.2281L50.6403 42.4178L52.1283 42.6074C52.154 42.4057 52.1668 42.2029 52.1668 42H50.6668Z" fill="white"/>
</svg>
