<svg width="84" height="84" viewBox="0 0 84 84" fill="none" xmlns="http://www.w3.org/2000/svg">
<mask id="path-1-outside-1_2209_10207" maskUnits="userSpaceOnUse" x="-9.7784e-07" y="-9.89765e-07" width="85" height="84" fill="black">
<rect fill="white" x="-9.7784e-07" y="-9.89765e-07" width="85" height="84"/>
<path d="M42 2C51.7404 2 61.1461 5.55411 68.4525 11.9956C75.7588 18.437 80.4638 27.3231 81.6846 36.9867C82.9054 46.6503 80.5581 56.4272 75.0832 64.4833C69.6083 72.5394 61.382 78.321 51.9476 80.7433C42.5132 83.1657 32.5191 82.0623 23.8404 77.6403C15.1616 73.2182 8.39462 65.7814 4.80894 56.725C1.22326 47.6686 1.06533 37.615 4.36477 28.4505C7.66421 19.2859 14.1943 11.6402 22.7299 6.94773L42 42L42 2Z"/>
</mask>
<path d="M42 2C51.7404 2 61.1461 5.55411 68.4525 11.9956C75.7588 18.437 80.4638 27.3231 81.6846 36.9867C82.9054 46.6503 80.5581 56.4272 75.0832 64.4833C69.6083 72.5394 61.382 78.321 51.9476 80.7433C42.5132 83.1657 32.5191 82.0623 23.8404 77.6403C15.1616 73.2182 8.39462 65.7814 4.80894 56.725C1.22326 47.6686 1.06533 37.615 4.36477 28.4505C7.66421 19.2859 14.1943 11.6402 22.7299 6.94773L42 42L42 2Z" fill="#FFF8FB"/>
<path d="M42 2C51.7404 2 61.1461 5.55411 68.4525 11.9956C75.7588 18.437 80.4638 27.3231 81.6846 36.9867C82.9054 46.6503 80.5581 56.4272 75.0832 64.4833C69.6083 72.5394 61.382 78.321 51.9476 80.7433C42.5132 83.1657 32.5191 82.0623 23.8404 77.6403C15.1616 73.2182 8.39462 65.7814 4.80894 56.725C1.22326 47.6686 1.06533 37.615 4.36477 28.4505C7.66421 19.2859 14.1943 11.6402 22.7299 6.94773L42 42L42 2Z" stroke="#5B3765" stroke-width="4" mask="url(#path-1-outside-1_2209_10207)"/>
<rect x="7.27344" y="7.27289" width="69.4546" height="69.4546" rx="34.7273" fill="#5B3765" stroke="#FFF8FB" stroke-width="4"/>
<path d="M31.334 40.5C30.5056 40.5 29.834 41.1716 29.834 42C29.834 42.8284 30.5056 43.5 31.334 43.5L31.334 42L31.334 40.5ZM48.3899 34.2679C47.8015 33.6848 46.8518 33.689 46.2686 34.2774C45.6854 34.8658 45.6897 35.8155 46.2781 36.3987L47.334 35.3333L48.3899 34.2679ZM49.6846 37.6631L48.6287 38.7284L49.6846 37.6631ZM49.6846 46.3369L50.7405 47.4023L49.6846 46.3369ZM46.2781 47.6013C45.6897 48.1844 45.6854 49.1342 46.2686 49.7226C46.8518 50.311 47.8015 50.3152 48.3899 49.732L47.334 48.6666L46.2781 47.6013ZM52.6408 41.5822L54.1288 41.3926L54.1288 41.3925L52.6408 41.5822ZM52.6408 42.4178L51.1528 42.2281V42.2281L52.6408 42.4178ZM31.334 42L31.334 43.5L52.6673 43.5V42V40.5L31.334 40.5L31.334 42ZM47.334 35.3333L46.2781 36.3987L48.6287 38.7284L49.6846 37.6631L50.7405 36.5977L48.3899 34.2679L47.334 35.3333ZM49.6846 46.3369L48.6287 45.2715L46.2781 47.6013L47.334 48.6666L48.3899 49.732L50.7405 47.4023L49.6846 46.3369ZM49.6846 37.6631L48.6287 38.7284C49.591 39.6822 50.2212 40.31 50.642 40.834C51.0439 41.3344 51.13 41.5928 51.1528 41.7719L52.6408 41.5822L54.1288 41.3925C54.0073 40.4394 53.5526 39.6672 52.9811 38.9555C52.4286 38.2675 51.6528 37.5018 50.7405 36.5977L49.6846 37.6631ZM49.6846 46.3369L50.7405 47.4023C51.6528 46.4981 52.4286 45.7324 52.9811 45.0444C53.5526 44.3328 54.0073 43.5606 54.1288 42.6074L52.6408 42.4178L51.1528 42.2281C51.13 42.4072 51.0439 42.6656 50.642 43.166C50.2212 43.69 49.591 44.3177 48.6287 45.2715L49.6846 46.3369ZM52.6408 41.5822L51.1528 41.7719C51.1625 41.8476 51.1673 41.9238 51.1673 42H52.6673H54.1673C54.1673 41.7971 54.1545 41.5942 54.1288 41.3926L52.6408 41.5822ZM52.6673 42H51.1673C51.1673 42.0762 51.1625 42.1523 51.1528 42.2281L52.6408 42.4178L54.1288 42.6074C54.1545 42.4057 54.1673 42.2029 54.1673 42H52.6673Z" fill="white"/>
</svg>
