<svg width="84" height="84" viewBox="0 0 84 84" fill="none" xmlns="http://www.w3.org/2000/svg">
<mask id="path-1-outside-1_2209_9733" maskUnits="userSpaceOnUse" x="-0.369142" y="-9.7784e-07" width="84" height="84" fill="black">
<rect fill="white" x="-0.369142" y="-9.7784e-07" width="84" height="84"/>
<path d="M41.6309 2C49.2213 2 56.6551 4.15971 63.0639 8.22688C69.4728 12.2941 74.5921 18.1008 77.8239 24.9688C81.0558 31.8369 82.2668 39.4827 81.3154 47.0133C80.3641 54.5439 77.2897 61.6484 72.4514 67.497C67.6131 73.3455 61.2105 77.6967 53.9915 80.0423C46.7726 82.3878 39.0353 82.631 31.6833 80.7433C24.3313 78.8557 17.6681 74.9151 12.4721 69.3819C7.27609 63.8487 3.76168 56.9513 2.33937 49.4953L41.6309 42L41.6309 2Z"/>
</mask>
<path d="M41.6309 2C49.2213 2 56.6551 4.15971 63.0639 8.22688C69.4728 12.2941 74.5921 18.1008 77.8239 24.9688C81.0558 31.8369 82.2668 39.4827 81.3154 47.0133C80.3641 54.5439 77.2897 61.6484 72.4514 67.497C67.6131 73.3455 61.2105 77.6967 53.9915 80.0423C46.7726 82.3878 39.0353 82.631 31.6833 80.7433C24.3313 78.8557 17.6681 74.9151 12.4721 69.3819C7.27609 63.8487 3.76168 56.9513 2.33937 49.4953L41.6309 42L41.6309 2Z" fill="#FFF8FB"/>
<path d="M41.6309 2C49.2213 2 56.6551 4.15971 63.0639 8.22688C69.4728 12.2941 74.5921 18.1008 77.8239 24.9688C81.0558 31.8369 82.2668 39.4827 81.3154 47.0133C80.3641 54.5439 77.2897 61.6484 72.4514 67.497C67.6131 73.3455 61.2105 77.6967 53.9915 80.0423C46.7726 82.3878 39.0353 82.631 31.6833 80.7433C24.3313 78.8557 17.6681 74.9151 12.4721 69.3819C7.27609 63.8487 3.76168 56.9513 2.33937 49.4953L41.6309 42L41.6309 2Z" stroke="#5B3765" stroke-width="4" mask="url(#path-1-outside-1_2209_9733)"/>
<rect x="6.90381" y="7.27289" width="69.4546" height="69.4546" rx="34.7273" fill="#5B3765" stroke="#FFF8FB" stroke-width="4"/>
<path d="M30.9639 40.5C30.1354 40.5 29.4639 41.1716 29.4639 42C29.4639 42.8284 30.1354 43.5 30.9639 43.5L30.9639 42L30.9639 40.5ZM48.0198 34.2679C47.4314 33.6848 46.4817 33.689 45.8985 34.2774C45.3153 34.8658 45.3196 35.8155 45.908 36.3987L46.9639 35.3333L48.0198 34.2679ZM49.3145 37.6631L48.2586 38.7284L49.3145 37.6631ZM49.3145 46.3369L50.3704 47.4023L49.3145 46.3369ZM45.908 47.6013C45.3196 48.1844 45.3153 49.1342 45.8985 49.7226C46.4817 50.311 47.4314 50.3152 48.0198 49.732L46.9639 48.6666L45.908 47.6013ZM52.2707 41.5822L53.7586 41.3926L53.7586 41.3925L52.2707 41.5822ZM52.2707 42.4178L50.7827 42.2281V42.2281L52.2707 42.4178ZM30.9639 42L30.9639 43.5L52.2972 43.5V42V40.5L30.9639 40.5L30.9639 42ZM46.9639 35.3333L45.908 36.3987L48.2586 38.7284L49.3145 37.6631L50.3704 36.5977L48.0198 34.2679L46.9639 35.3333ZM49.3145 46.3369L48.2586 45.2715L45.908 47.6013L46.9639 48.6666L48.0198 49.732L50.3704 47.4023L49.3145 46.3369ZM49.3145 37.6631L48.2586 38.7284C49.2209 39.6822 49.851 40.31 50.2719 40.834C50.6738 41.3344 50.7599 41.5928 50.7827 41.7719L52.2707 41.5822L53.7586 41.3925C53.6372 40.4394 53.1825 39.6672 52.611 38.9555C52.0585 38.2675 51.2826 37.5018 50.3704 36.5977L49.3145 37.6631ZM49.3145 46.3369L50.3704 47.4023C51.2826 46.4981 52.0585 45.7324 52.611 45.0444C53.1825 44.3328 53.6372 43.5606 53.7586 42.6074L52.2707 42.4178L50.7827 42.2281C50.7599 42.4072 50.6738 42.6656 50.2719 43.166C49.851 43.69 49.2209 44.3177 48.2586 45.2715L49.3145 46.3369ZM52.2707 41.5822L50.7827 41.7719C50.7924 41.8476 50.7972 41.9238 50.7972 42H52.2972H53.7972C53.7972 41.7971 53.7843 41.5942 53.7586 41.3926L52.2707 41.5822ZM52.2972 42H50.7972C50.7972 42.0762 50.7924 42.1523 50.7827 42.2281L52.2707 42.4178L53.7586 42.6074C53.7843 42.4057 53.7972 42.2029 53.7972 42H52.2972Z" fill="white"/>
</svg>
