<svg width="83" height="82" viewBox="0 0 83 82" fill="none" xmlns="http://www.w3.org/2000/svg">
<mask id="path-1-outside-1_2209_8161" maskUnits="userSpaceOnUse" x="38.0001" y="-9.89765e-07" width="45" height="45" fill="black">
<rect fill="white" x="38.0001" y="-9.89765e-07" width="45" height="45"/>
<path d="M40.0001 2C50.174 2 59.9656 5.87675 67.382 12.8413C74.7984 19.8058 79.2824 29.3346 79.9212 39.4884L40.0001 42L40.0001 2Z"/>
</mask>
<path d="M40.0001 2C50.174 2 59.9656 5.87675 67.382 12.8413C74.7984 19.8058 79.2824 29.3346 79.9212 39.4884L40.0001 42L40.0001 2Z" fill="#FFF8FB"/>
<path d="M40.0001 2C50.174 2 59.9656 5.87675 67.382 12.8413C74.7984 19.8058 79.2824 29.3346 79.9212 39.4884L40.0001 42L40.0001 2Z" stroke="#5B2E68" stroke-width="4" mask="url(#path-1-outside-1_2209_8161)"/>
<rect x="5.27295" y="7.27289" width="69.4546" height="69.4546" rx="34.7273" fill="#5B2E68" stroke="#FFF8FB" stroke-width="4"/>
<path d="M29.3334 40.5C28.5049 40.5 27.8334 41.1716 27.8334 42C27.8334 42.8284 28.5049 43.5 29.3334 43.5L29.3334 42L29.3334 40.5ZM46.3893 34.2679C45.8009 33.6848 44.8512 33.689 44.268 34.2774C43.6848 34.8658 43.6891 35.8155 44.2775 36.3987L45.3334 35.3333L46.3893 34.2679ZM47.684 37.6631L46.6281 38.7284L47.684 37.6631ZM47.684 46.3369L48.7399 47.4023L47.684 46.3369ZM44.2775 47.6013C43.6891 48.1844 43.6848 49.1342 44.268 49.7226C44.8512 50.311 45.8009 50.3152 46.3893 49.732L45.3334 48.6666L44.2775 47.6013ZM50.6402 41.5822L52.1282 41.3926L52.1281 41.3925L50.6402 41.5822ZM50.6402 42.4178L49.1522 42.2281V42.2281L50.6402 42.4178ZM29.3334 42L29.3334 43.5L50.6667 43.5V42V40.5L29.3334 40.5L29.3334 42ZM45.3334 35.3333L44.2775 36.3987L46.6281 38.7284L47.684 37.6631L48.7399 36.5977L46.3893 34.2679L45.3334 35.3333ZM47.684 46.3369L46.6281 45.2715L44.2775 47.6013L45.3334 48.6666L46.3893 49.732L48.7399 47.4023L47.684 46.3369ZM47.684 37.6631L46.6281 38.7284C47.5904 39.6822 48.2205 40.31 48.6414 40.834C49.0433 41.3344 49.1294 41.5928 49.1522 41.7719L50.6402 41.5822L52.1281 41.3925C52.0067 40.4394 51.552 39.6672 50.9805 38.9555C50.428 38.2675 49.6522 37.5018 48.7399 36.5977L47.684 37.6631ZM47.684 46.3369L48.7399 47.4023C49.6522 46.4981 50.428 45.7324 50.9805 45.0444C51.552 44.3328 52.0067 43.5606 52.1281 42.6074L50.6402 42.4178L49.1522 42.2281C49.1294 42.4072 49.0433 42.6656 48.6414 43.166C48.2205 43.69 47.5904 44.3177 46.6281 45.2715L47.684 46.3369ZM50.6402 41.5822L49.1522 41.7719C49.1619 41.8476 49.1667 41.9238 49.1667 42H50.6667H52.1667C52.1667 41.7971 52.1539 41.5942 52.1282 41.3926L50.6402 41.5822ZM50.6667 42H49.1667C49.1667 42.0762 49.1619 42.1523 49.1522 42.2281L50.6402 42.4178L52.1281 42.6074C52.1539 42.4057 52.1667 42.2029 52.1667 42H50.6667Z" fill="white"/>
</svg>
