<svg width="82" height="84" viewBox="0 0 82 84" fill="none" xmlns="http://www.w3.org/2000/svg">
<mask id="path-1-outside-1_2633_4995" maskUnits="userSpaceOnUse" x="3" y="-9.18216e-07" width="79" height="84" fill="black">
<rect fill="white" x="3" y="-9.18216e-07" width="79" height="84"/>
<path d="M40 2C46.9737 2 53.8262 3.8232 59.8779 7.28876C65.9295 10.7543 70.97 15.7418 74.4993 21.7565C78.0286 27.7712 79.9241 34.6041 79.9978 41.5774C80.0714 48.5507 78.3207 55.4221 74.9193 61.51C71.5179 67.5979 66.5839 72.6908 60.6069 76.2835C54.6298 79.8761 47.8173 81.8437 40.8452 81.9911C33.8731 82.1384 26.9835 80.4604 20.86 77.1235C14.7365 73.7866 9.59177 68.9067 5.93617 62.968L40 42L40 2Z"/>
</mask>
<path d="M40 2C46.9737 2 53.8262 3.8232 59.8779 7.28876C65.9295 10.7543 70.97 15.7418 74.4993 21.7565C78.0286 27.7712 79.9241 34.6041 79.9978 41.5774C80.0714 48.5507 78.3207 55.4221 74.9193 61.51C71.5179 67.5979 66.5839 72.6908 60.6069 76.2835C54.6298 79.8761 47.8173 81.8437 40.8452 81.9911C33.8731 82.1384 26.9835 80.4604 20.86 77.1235C14.7365 73.7866 9.59177 68.9067 5.93617 62.968L40 42L40 2Z" fill="#FFF8FB"/>
<path d="M40 2C46.9737 2 53.8262 3.8232 59.8779 7.28876C65.9295 10.7543 70.97 15.7418 74.4993 21.7565C78.0286 27.7712 79.9241 34.6041 79.9978 41.5774C80.0714 48.5507 78.3207 55.4221 74.9193 61.51C71.5179 67.5979 66.5839 72.6908 60.6069 76.2835C54.6298 79.8761 47.8173 81.8437 40.8452 81.9911C33.8731 82.1384 26.9835 80.4604 20.86 77.1235C14.7365 73.7866 9.59177 68.9067 5.93617 62.968L40 42L40 2Z" stroke="#5B3765" stroke-width="4" mask="url(#path-1-outside-1_2633_4995)"/>
<rect x="5.27295" y="7.27289" width="69.4546" height="69.4546" rx="34.7273" fill="#5B3765" stroke="#FFF8FB" stroke-width="4"/>
<path d="M29.333 40.5C28.5046 40.5 27.833 41.1716 27.833 42C27.833 42.8284 28.5046 43.5 29.333 43.5L29.333 42L29.333 40.5ZM46.3889 34.2679C45.8005 33.6848 44.8508 33.689 44.2676 34.2774C43.6845 34.8658 43.6887 35.8155 44.2771 36.3987L45.333 35.3333L46.3889 34.2679ZM47.6836 37.6631L46.6277 38.7284L47.6836 37.6631ZM47.6836 46.3369L48.7396 47.4023L47.6836 46.3369ZM44.2771 47.6013C43.6887 48.1844 43.6845 49.1342 44.2676 49.7226C44.8508 50.311 45.8005 50.3152 46.3889 49.732L45.333 48.6666L44.2771 47.6013ZM50.6398 41.5822L52.1278 41.3926L52.1278 41.3925L50.6398 41.5822ZM50.6398 42.4178L49.1519 42.2281V42.2281L50.6398 42.4178ZM29.333 42L29.333 43.5L50.6663 43.5V42V40.5L29.333 40.5L29.333 42ZM45.333 35.3333L44.2771 36.3987L46.6277 38.7284L47.6836 37.6631L48.7396 36.5977L46.3889 34.2679L45.333 35.3333ZM47.6836 46.3369L46.6277 45.2715L44.2771 47.6013L45.333 48.6666L46.3889 49.732L48.7396 47.4023L47.6836 46.3369ZM47.6836 37.6631L46.6277 38.7284C47.5901 39.6822 48.2202 40.31 48.641 40.834C49.0429 41.3344 49.129 41.5928 49.1519 41.7719L50.6398 41.5822L52.1278 41.3925C52.0063 40.4394 51.5516 39.6672 50.9801 38.9555C50.4276 38.2675 49.6518 37.5018 48.7396 36.5977L47.6836 37.6631ZM47.6836 46.3369L48.7396 47.4023C49.6518 46.4981 50.4276 45.7324 50.9801 45.0444C51.5516 44.3328 52.0063 43.5606 52.1278 42.6074L50.6398 42.4178L49.1519 42.2281C49.129 42.4072 49.0429 42.6656 48.641 43.166C48.2202 43.69 47.5901 44.3177 46.6277 45.2715L47.6836 46.3369ZM50.6398 41.5822L49.1519 41.7719C49.1615 41.8476 49.1663 41.9238 49.1663 42H50.6663H52.1663C52.1663 41.7971 52.1535 41.5942 52.1278 41.3926L50.6398 41.5822ZM50.6663 42H49.1663C49.1663 42.0762 49.1615 42.1523 49.1519 42.2281L50.6398 42.4178L52.1278 42.6074C52.1535 42.4057 52.1663 42.2029 52.1663 42H50.6663Z" fill="white"/>
</svg>
