<svg width="84" height="84" viewBox="0 0 84 84" fill="none" xmlns="http://www.w3.org/2000/svg">
<mask id="path-1-outside-1_2209_10069" maskUnits="userSpaceOnUse" x="-9.7784e-07" y="-9.7784e-07" width="84" height="84" fill="black">
<rect fill="white" x="-9.7784e-07" y="-9.7784e-07" width="84" height="84"/>
<path d="M42 2C50.4472 2 58.6775 4.6742 65.5114 9.63932C72.3453 14.6044 77.4319 21.6056 80.0423 29.6393C82.6526 37.6731 82.6526 46.3269 80.0423 54.3607C77.4319 62.3944 72.3453 69.3956 65.5114 74.3607C58.6775 79.3258 50.4472 82 42 82C33.5528 82 25.3225 79.3258 18.4886 74.3607C11.6547 69.3956 6.56806 62.3944 3.95774 54.3607C1.34742 46.3269 1.34742 37.673 3.95774 29.6393L42 42L42 2Z"/>
</mask>
<path d="M42 2C50.4472 2 58.6775 4.6742 65.5114 9.63932C72.3453 14.6044 77.4319 21.6056 80.0423 29.6393C82.6526 37.6731 82.6526 46.3269 80.0423 54.3607C77.4319 62.3944 72.3453 69.3956 65.5114 74.3607C58.6775 79.3258 50.4472 82 42 82C33.5528 82 25.3225 79.3258 18.4886 74.3607C11.6547 69.3956 6.56806 62.3944 3.95774 54.3607C1.34742 46.3269 1.34742 37.673 3.95774 29.6393L42 42L42 2Z" fill="#FFF8FB"/>
<path d="M42 2C50.4472 2 58.6775 4.6742 65.5114 9.63932C72.3453 14.6044 77.4319 21.6056 80.0423 29.6393C82.6526 37.6731 82.6526 46.3269 80.0423 54.3607C77.4319 62.3944 72.3453 69.3956 65.5114 74.3607C58.6775 79.3258 50.4472 82 42 82C33.5528 82 25.3225 79.3258 18.4886 74.3607C11.6547 69.3956 6.56806 62.3944 3.95774 54.3607C1.34742 46.3269 1.34742 37.673 3.95774 29.6393L42 42L42 2Z" stroke="#5B3765" stroke-width="4" mask="url(#path-1-outside-1_2209_10069)"/>
<rect x="7.27295" y="7.27289" width="69.4546" height="69.4546" rx="34.7273" fill="#5B3765" stroke="#FFF8FB" stroke-width="4"/>
<path d="M31.333 40.5C30.5046 40.5 29.833 41.1716 29.833 42C29.833 42.8284 30.5046 43.5 31.333 43.5L31.333 42L31.333 40.5ZM48.3889 34.2679C47.8005 33.6848 46.8508 33.689 46.2676 34.2774C45.6845 34.8658 45.6887 35.8155 46.2771 36.3987L47.333 35.3333L48.3889 34.2679ZM49.6836 37.6631L48.6277 38.7284L49.6836 37.6631ZM49.6836 46.3369L50.7396 47.4023L49.6836 46.3369ZM46.2771 47.6013C45.6887 48.1844 45.6845 49.1342 46.2676 49.7226C46.8508 50.311 47.8005 50.3152 48.3889 49.732L47.333 48.6666L46.2771 47.6013ZM52.6398 41.5822L54.1278 41.3926L54.1278 41.3925L52.6398 41.5822ZM52.6398 42.4178L51.1519 42.2281V42.2281L52.6398 42.4178ZM31.333 42L31.333 43.5L52.6663 43.5V42V40.5L31.333 40.5L31.333 42ZM47.333 35.3333L46.2771 36.3987L48.6277 38.7284L49.6836 37.6631L50.7396 36.5977L48.3889 34.2679L47.333 35.3333ZM49.6836 46.3369L48.6277 45.2715L46.2771 47.6013L47.333 48.6666L48.3889 49.732L50.7396 47.4023L49.6836 46.3369ZM49.6836 37.6631L48.6277 38.7284C49.5901 39.6822 50.2202 40.31 50.641 40.834C51.0429 41.3344 51.129 41.5928 51.1519 41.7719L52.6398 41.5822L54.1278 41.3925C54.0063 40.4394 53.5516 39.6672 52.9801 38.9555C52.4276 38.2675 51.6518 37.5018 50.7396 36.5977L49.6836 37.6631ZM49.6836 46.3369L50.7396 47.4023C51.6518 46.4981 52.4276 45.7324 52.9801 45.0444C53.5516 44.3328 54.0063 43.5606 54.1278 42.6074L52.6398 42.4178L51.1519 42.2281C51.129 42.4072 51.0429 42.6656 50.641 43.166C50.2202 43.69 49.5901 44.3177 48.6277 45.2715L49.6836 46.3369ZM52.6398 41.5822L51.1519 41.7719C51.1615 41.8476 51.1663 41.9238 51.1663 42H52.6663H54.1663C54.1663 41.7971 54.1535 41.5942 54.1278 41.3926L52.6398 41.5822ZM52.6663 42H51.1663C51.1663 42.0762 51.1615 42.1523 51.1519 42.2281L52.6398 42.4178L54.1278 42.6074C54.1535 42.4057 54.1663 42.2029 54.1663 42H52.6663Z" fill="white"/>
</svg>
