<svg width="80" height="82" viewBox="0 0 80 82" fill="none" xmlns="http://www.w3.org/2000/svg">
<mask id="path-1-outside-1_2209_8059" maskUnits="userSpaceOnUse" x="38.0001" y="-7.39343e-07" width="24" height="43" fill="black">
<rect fill="white" x="38.0001" y="-7.39343e-07" width="24" height="43"/>
<path d="M40.0001 2C46.7377 2 53.3661 3.70189 59.2703 6.94773L40.0001 42L40.0001 2Z"/>
</mask>
<path d="M40.0001 2C46.7377 2 53.3661 3.70189 59.2703 6.94773L40.0001 42L40.0001 2Z" fill="#FFEDF5"/>
<path d="M40.0001 2C46.7377 2 53.3661 3.70189 59.2703 6.94773L40.0001 42L40.0001 2Z" stroke="#5B3765" stroke-width="4" mask="url(#path-1-outside-1_2209_8059)"/>
<rect x="5.27301" y="7.27289" width="69.4546" height="69.4546" rx="34.7273" fill="#5B3765" stroke="#FFEDF5" stroke-width="4"/>
<path d="M29.3333 40.5C28.5049 40.5 27.8333 41.1716 27.8333 42C27.8333 42.8284 28.5049 43.5 29.3333 43.5L29.3333 42L29.3333 40.5ZM46.3892 34.2679C45.8008 33.6848 44.8511 33.689 44.2679 34.2774C43.6848 34.8658 43.689 35.8155 44.2774 36.3987L45.3333 35.3333L46.3892 34.2679ZM47.6839 37.6631L46.628 38.7284L47.6839 37.6631ZM47.6839 46.3369L48.7399 47.4023L47.6839 46.3369ZM44.2774 47.6013C43.689 48.1844 43.6848 49.1342 44.2679 49.7226C44.8511 50.311 45.8008 50.3152 46.3892 49.732L45.3333 48.6666L44.2774 47.6013ZM50.6401 41.5822L52.1281 41.3926L52.1281 41.3925L50.6401 41.5822ZM50.6401 42.4178L49.1522 42.2281V42.2281L50.6401 42.4178ZM29.3333 42L29.3333 43.5L50.6666 43.5V42V40.5L29.3333 40.5L29.3333 42ZM45.3333 35.3333L44.2774 36.3987L46.628 38.7284L47.6839 37.6631L48.7399 36.5977L46.3892 34.2679L45.3333 35.3333ZM47.6839 46.3369L46.628 45.2715L44.2774 47.6013L45.3333 48.6666L46.3892 49.732L48.7399 47.4023L47.6839 46.3369ZM47.6839 37.6631L46.628 38.7284C47.5904 39.6822 48.2205 40.31 48.6413 40.834C49.0432 41.3344 49.1293 41.5928 49.1522 41.7719L50.6401 41.5822L52.1281 41.3925C52.0066 40.4394 51.5519 39.6672 50.9804 38.9555C50.4279 38.2675 49.6521 37.5018 48.7399 36.5977L47.6839 37.6631ZM47.6839 46.3369L48.7399 47.4023C49.6521 46.4981 50.4279 45.7324 50.9804 45.0444C51.5519 44.3328 52.0066 43.5606 52.1281 42.6074L50.6401 42.4178L49.1522 42.2281C49.1293 42.4072 49.0432 42.6656 48.6413 43.166C48.2205 43.69 47.5904 44.3177 46.628 45.2715L47.6839 46.3369ZM50.6401 41.5822L49.1522 41.7719C49.1618 41.8476 49.1666 41.9238 49.1666 42H50.6666H52.1666C52.1666 41.7971 52.1538 41.5942 52.1281 41.3926L50.6401 41.5822ZM50.6666 42H49.1666C49.1666 42.0762 49.1618 42.1523 49.1522 42.2281L50.6401 42.4178L52.1281 42.6074C52.1538 42.4057 52.1666 42.2029 52.1666 42H50.6666Z" fill="#FFEDF5"/>
</svg>
